<svg width="27" height="26" viewBox="0 0 27 26" fill="none" xmlns="http://www.w3.org/2000/svg">
<path d="M26.4808 12.9808C26.4808 19.8441 20.6885 25.4423 13.5 25.4423C6.31154 25.4423 0.519231 19.8441 0.519231 12.9808C0.519231 6.11746 6.31154 0.519231 13.5 0.519231C20.6885 0.519231 26.4808 6.11746 26.4808 12.9808Z" fill="#CCCCCC" stroke="#CCCCCC" stroke-width="1.03846"/>
<circle cx="13.5" cy="9.5" r="5" fill="black" stroke="#CCCCCC"/>
<path d="M21.5 20.9614C21.5 22.0926 20.7172 23.207 19.2569 24.066C17.8081 24.9182 15.7739 25.4614 13.5 25.4614C11.2261 25.4614 9.19188 24.9182 7.7431 24.066C6.28276 23.207 5.5 22.0926 5.5 20.9614C5.5 19.8303 6.28276 18.7159 7.7431 17.8569C9.19188 17.0046 11.2261 16.4614 13.5 16.4614C15.7739 16.4614 17.8081 17.0046 19.2569 17.8569C20.7172 18.7159 21.5 19.8303 21.5 20.9614Z" fill="black" stroke="#CCCCCC"/>
</svg>
